<svg width="360" height="88" viewBox="0 0 360 88" xmlns="http://www.w3.org/2000/svg" xmlns:xlink="http://www.w3.org/1999/xlink"><defs><path id="a" d="M0 0h359.2v86.7H0z"/></defs><g transform="translate(.2 .5)" fill="none" fill-rule="evenodd"><mask id="b" fill="#fff"><use xlink:href="#a"/></mask><path d="M353.6 67.6c-9.2-.2-43.5.5-47.9.6l4.5-7.4c4.4-7.2 6-8.8 4.9-10.6-1.9-2.8-2.5-3.8-3.6-2.7v-.1s-14.4 9-26.4 16c-5.7 3.4-14 8.6-13.1 6 .7-2.8 3.5-6.8 7.7-11.2 5.3-5.5 8.8-8.2 10-8.2.3 0-5.5 7-5.2 8.9 0 .7 1.1 1.2 1.1 1.2s8.4-9 7.3-11.6c-1-2.5-1.3-5-4.7-4-3.7 1-12.5 6.9-18.3 13.6l-2.6 3.2c-9.4 5.8-17.6 9.9-18.9 10-1.5 0-1.4-4.2-.5-4.8 1.4-2 14.4-9.3 16.4-11.6 4.4-4.8 2.7-11.7 0-13.3-1.4-.8-11.6 8.5-15.5 13.3-2 2.4-4.5 6-6 9.8l-.3.7c-.5.7-1 1.3-1.1 1.7l-.1-.4v.3c-.4 1.5-.2-.3 0-.3-.4-8 4.4-14.6 4.6-16.7 0-1.2-3.8-4.5-3.8-4.5l-.4.5c-1.3 1.3-20.1 20.5-22.7 22-.7.4-3.2-3.5 5.6-18 8.6-11.9 20.3-27 22.6-30.6 2.8-4.5 3-6.1 1.5-8.2-1.4-2.1-1.3-1-3.8 2.5l-22.1 28.6-2 2.3s0-6.6-2.6-6.4c-2.6.2-26 23.5-27.4 32.5-.5 3.5 3 5.6 4 6.3 1 .6 12.6-10.4 16.4-13.9-.1 4.5 2.3 11.2 6.3 10.7 2.6-.4 13.2-10.8 19.8-17.6-2.7 9.1-1.2 12 0 15 1 .7 2.3 1.3 3.5 1.8l1.2 1.6c1.2.9 2.3 2 5.8 1.2 2.7-.7 8.3-3.3 16.8-8.6-.9 4 .5 7.2 6.2 7.6 3.2.2 26.2-14 35.4-19.6a93.3 93.3 0 0 0-6.9 11.6c-.8 1.5-1 2.7-.8 3.7v.2l.4.8a8 8 0 0 0 2 1.2c.6.3 2-.2 10.3-1.1 7.7-1 46.4-1.3 48-1.4.8 0-3.8-2.5-5.6-2.6m-138-17a169 169 0 0 1-19.1 20.1c-1.7.4 4.1-7.5 7-11.1 5-6 11.5-13.1 13-12.7 1.4.4 0 2.3-.9 3.7M250 60.9c5-6.6 11-11.8 11.2-11.4.2 1.7 1 2.6-2 5-2.5 2-9.3 6.5-9.2 6.4m68.4-14.5c4.2-1 13.2-.4 14.8-1.5-.3 0-4-.8-6.2-2.1a41 41 0 0 0-13-.6c-3.3.8 3.7 4.5 4.4 4.2M259.8 33c.6-.2-3.2-.4-3.5-.4-.2 0-12 4.7-12.4 5.4-1 2.2 3 5 3 4.9.8-2.8 13.3-8.2 12.9-10M199 31.3c-11 .7-18.4 1.4-24 1.9 2.3-2.8 5-6.6 6.5-8.4 1.3-1.7-.3-2.8-1-4.2-.9-1.2-1.1-.6-2 .5-.7 1.1-3.8 5-7 8.8l-3.2 4c-1.5 0-2.9.2-4.2.3-13.6 1.4-11.6-.5-7.3 4.4 1.6 1 6.2.5 5.6 1.5-2.8 4.7-22 22.7-28.6 27.8-2.5 2-5 4-5.4 3-.6-1.2 1.8-6.2 4.7-13 2.6-6 4-9.2 3.5-10.3-.3-.5-1.5-2.8-2-3.3-1.1-1-2.6 0-8 4.6A416 416 0 0 1 111.2 61c-.5.3-.3-.3 7.3-10 2-2.3 3.5-4.2 5.4-6.8 1.8-2.3-1.3-3-1.3-3-3.5 2.4-4.9 4-8.4 6.8a279 279 0 0 1-12.4 9.7c-20.6 15-23.4 15-24.1 15-.7 0-2.7-5.3.4-8.9 3-1.5 19.6-10.5 22.4-13.1 5.9-5.6 5.6-13.5 2.4-15.7C101.1 33.9 86 45.3 80.6 51a52 52 0 0 0-8.4 11.5c-9.4 4.3-21.3 9.2-34.4 13.4-5.6 1.8-21 6.4-26 2.4-6.9-5.7 0-15.7 33-39.1A444.7 444.7 0 0 1 99 6.6c2.8-1 3.7-1.7 3-.6-1.6 2.4-5 11-5.6 12.8-.7 1.8.3 3.9 2.5 6 .3.4.6.6 1 .7.3 0 .4-.2.3-.3-1-1 1.1-4.6 3-7.7l4.6-7.6c1.7-2.7-4-7.1-5.7-9-1.7-1.7-4.6-.8-11.3 1.6-1.6.5-47.2 24.6-80 55.3C-1.6 69.5-4.4 82.2 8.5 86c7.3 2 18-.4 35-6.9 9.5-3.5 18.8-7.6 26.8-11.4-.9 3.8-.4 7.4 2.5 10.3 2.8 2.8 5.2 1 21.7-9.3 7.4-4.6 10.5-7.3 11-7-1 2.1-2.6 4.6-3.4 6.2-1.6 3.3-3 4.9-1.8 6.3 1.8 2.3 2.5 3 4.8 1l21.1-19.3c.5-.5 1.8-1.8 0 2.7-2.6 6.7-4.4 11.7-1.3 15.1 2.6 2.8 4.2 3.7 8.7.7 3-2 6.8-4.8 10.1-7.3-.5 2 0 3.8.9 6.2.7 2 2 2.6 3.7 1.9 3-1 9.5-4.4 16.6-8.5l-.2 1.5c-.7 7.1 2.5 7.9 5.7 7.7 4.6-.3 14.3-7 23-19.1 6.4-9.1 0-12.6-1-13.9-1.3-1.6-.6-3.6-4.2-2.7-5.1 1.4-11.8 6-15.9 11.8-1.9 2.6-4.2 5.8-5.8 9.5a141.8 141.8 0 0 1-15.7 7.2c-3.4 1.4-3 .7-1.3-1.9 3-4.4 12-15.8 23-30.2 5.2-.8 11.6-.9 19-.8 3.1 0 10.7-4.8 7.7-4.6m-25.3 26c1.2-2 2.4-3.7 3.6-5 3.3-3.8 5.6-5.6 7.4-6.3h1.1c4 .3-3.1 5.6-12.1 11.3m-3.2 6c7-4.5 14-9.3 18.2-12.9.2 3.7-8 13.6-17 19.1-4 2.5-3.4-1.4-1.2-6.3m-90-4.5l.4-.4c7-7.5 17-14.9 17.2-14.4 0 2.1 0 4.5-4.1 7-3.3 2.1-12.3 7.2-13.5 7.8" fill="#82868E" mask="url(#b)"/></g></svg>